<?xml version="1.0" encoding="UTF-8"?>
<svg version="1.1" xmlns="http://www.w3.org/2000/svg" width="2084" height="2084">
<path d="M0 0 C302.94 0 605.88 0 918 0 C918 222.13376835 918 222.13376835 895 252 C893.75233604 253.62151985 892.50491248 255.24322434 891.25756836 256.86499023 C890.41863284 257.95572042 889.57960276 259.04637788 888.74047852 260.13696289 C886.70570351 262.78157716 884.67218697 265.42713386 882.640625 268.07421875 C877.84624905 274.31787502 873.02588912 280.54038067 868.1875 286.75 C861.89729487 294.82493961 855.67187405 302.94787195 849.46240234 311.08496094 C843.41321617 319.00646617 837.31295819 326.88742169 831.1875 334.75 C824.90311198 342.81759914 818.68354114 350.93317211 812.47998047 359.06298828 C809.45661906 363.01999082 806.41727147 366.96467076 803.37890625 370.91015625 C801.80188021 372.95847742 800.22634141 375.00794455 798.65234375 377.05859375 C793.8543524 383.30768492 789.02989136 389.53524417 784.1875 395.75 C777.90305059 403.8175508 771.68354062 411.93317278 765.47998047 420.06298828 C762.45661906 424.01999082 759.41727147 427.96467076 756.37890625 431.91015625 C754.80188021 433.95847742 753.22634141 436.00794455 751.65234375 438.05859375 C746.8543524 444.30768492 742.02989136 450.53524417 737.1875 456.75 C730.89729487 464.82493961 724.67187405 472.94787195 718.46240234 481.08496094 C712.41321617 489.00646617 706.31295819 496.88742169 700.1875 504.75 C693.9121186 512.80603687 687.70114762 520.90976505 681.50634766 529.02783203 C679.15529937 532.10591437 676.79772693 535.17895229 674.4375 538.25 C673.67308594 539.24515625 672.90867187 540.2403125 672.12109375 541.265625 C670.68724291 543.1140515 669.21977329 544.93680738 667.72265625 546.734375 C665.79824758 548.79098406 665.79824758 548.79098406 666 551 C666.55421631 551.12415283 667.10843262 551.24830566 667.67944336 551.3762207 C720.66712514 563.457176 771.47548159 585.84799415 814 620 C815.37091797 621.07121094 815.37091797 621.07121094 816.76953125 622.1640625 C828.517311 631.38768279 839.57991894 641.24103564 850.09741211 651.83666992 C851.82248477 653.57254731 853.55811991 655.2973509 855.29492188 657.02148438 C861.97783361 663.69609311 868.14018222 670.57914995 874 678 C875.07223808 679.2941769 876.14862211 680.58493816 877.23046875 681.87109375 C897.6144426 706.34743299 913.77744627 733.56549846 928 762 C928.39348633 762.77375977 928.78697266 763.54751953 929.19238281 764.34472656 C956.95200284 819.11890323 972.94862517 884.09202278 973.203125 945.4296875 C973.21013931 946.57068909 973.21715363 947.71169067 973.22438049 948.88726807 C973.24178258 952.54988606 973.24823309 956.21234218 973.25 959.875 C973.25101212 961.75514801 973.25101212 961.75514801 973.25204468 963.67327881 C973.23582185 982.64367937 972.72659292 1001.20100059 970 1020 C969.83371094 1021.20479004 969.66742187 1022.40958008 969.49609375 1023.65087891 C956.86242317 1113.33824219 913.49172766 1206.36744747 840.609375 1262.953125 C838.04047052 1264.96825366 835.58541865 1267.07255864 833.12792969 1269.22021484 C788.88274727 1307.83307181 736.12623953 1336.34629721 681 1356 C679.87770996 1356.40202637 678.75541992 1356.80405273 677.59912109 1357.21826172 C630.01839186 1374.09950069 580.2326681 1383.11808791 530 1387 C529.1126416 1387.07202637 528.2252832 1387.14405273 527.31103516 1387.21826172 C447.27899223 1393.47673095 363.88473143 1380.73807524 257.48388672 1339.16992188 C254.82048344 1337.91544689 252.14683744 1336.68444263 249.47265625 1335.453125 C222.35497146 1322.8538031 196.36226513 1307.68678255 172.72705078 1289.33007812 C170.12069402 1287.32280761 167.46272374 1285.38629555 164.8125 1283.4375 C155.04175669 1276.09952634 145.89943938 1268.04331193 136.953125 1259.73046875 C135.02396292 1257.93792388 133.07667608 1256.17774262 131.109375 1254.42578125 C102.14869723 1228.52378469 78.22019033 1196.65472391 59 1163 C58.54657227 1162.20674316 58.09314453 1161.41348633 57.62597656 1160.59619141 C45.31690032 1138.90113619 35.3085598 1116.50920738 27 1093 C26.57726807 1091.84564453 26.57726807 1091.84564453 26.14599609 1090.66796875 C9.84020737 1045.95042586 5.9718099 993.93456695 2.3125 946.75 C2.25156158 945.96795197 2.19062317 945.18590393 2.12783813 944.38015747 C1.70865025 938.92263843 1.34317447 933.46278372 1 928 C0.95343602 927.26397408 0.90687204 926.52794817 0.85889704 925.76961844 C-0.23053448 907.74093929 -0.14012376 889.70558367 -0.12226575 871.65272753 C-0.11879754 867.00784399 -0.12121215 862.36296265 -0.12284851 857.71807861 C-0.12491617 849.58857556 -0.12329642 841.45907988 -0.11921513 833.32957768 C-0.11308798 821.08451795 -0.11284743 808.83946263 -0.11368043 796.59440165 C-0.1149198 776.06922984 -0.11164035 755.54406124 -0.10557556 735.01889038 C-0.09738968 707.26609177 -0.09547174 679.51329864 -0.09460449 651.76049805 C-0.08935613 585.04866471 -0.07539499 518.33683229 -0.0625 451.625 C-0.0315625 228.070625 -0.0315625 228.070625 0 0 Z M252 251 C251.99361754 392.36244465 251.99361754 392.36244465 252.33799505 533.72329068 C252.36554292 541.15860807 252.39236318 548.59392791 252.41899212 556.02924863 C252.50321383 579.5387902 252.58862115 603.04832701 252.67867851 626.55784702 C252.68416559 627.99110941 252.68965255 629.4243718 252.69513942 630.85763418 C252.70063324 632.29241969 252.70612716 633.7272052 252.71162117 635.1619907 C252.72262631 638.03613507 252.73362853 640.91027944 252.74462891 643.78442383 C252.74872116 644.85309272 252.74872116 644.85309272 252.75289608 645.94335088 C252.84264395 669.39450882 252.92445473 692.84568592 253.00196826 716.29688727 C253.08532006 741.50553342 253.17559475 766.71414552 253.2737571 791.92273849 C253.28449045 794.68562844 253.29519612 797.44851849 253.3058815 800.21140862 C253.30851296 800.89096888 253.31114441 801.57052914 253.31385561 802.27068214 C253.35299469 812.41646634 253.3870106 822.56225908 253.41814804 832.70807076 C253.45338049 844.16615483 253.49515737 855.62419192 253.54533683 867.08222068 C253.57061287 872.89719295 253.59295385 878.71213381 253.60683823 884.52714539 C253.7409642 938.58838855 256.44023458 991.19459524 289 1037 C290.10988281 1038.56427734 290.10988281 1038.56427734 291.2421875 1040.16015625 C295.48770331 1045.97019605 300.00595532 1051.41383245 304.88671875 1056.69921875 C306.79595605 1058.77785234 308.61976644 1060.90420746 310.4375 1063.0625 C347.99219383 1105.8354998 413.03286651 1123.98830761 467.68164062 1127.82128906 C531.92507578 1131.28113269 600.36898698 1115.89785461 650 1073 C652.50128436 1070.47566232 654.73303698 1067.73555314 657 1065 C657.42555176 1064.49210937 657.85110352 1063.98421875 658.28955078 1063.4609375 C680.36500907 1037.01037097 697.74978749 1006.92867216 705 973 C705.16226074 972.27377441 705.32452148 971.54754883 705.49169922 970.79931641 C710.03381239 949.81372232 709.76691876 926.91858392 705 906 C704.83902832 905.27377441 704.67805664 904.54754883 704.51220703 903.79931641 C699.04016075 879.92941999 687.65619564 858.44580206 673 839 C672.3503125 838.1234375 671.700625 837.246875 671.03125 836.34375 C658.9063494 820.75459208 644.09328743 807.35059004 628 796 C627.39833008 795.56429687 626.79666016 795.12859375 626.17675781 794.6796875 C574.28478592 757.19097207 503.40968631 743.81181088 440.703125 753.80078125 C436.78794237 754.46737145 432.8914245 755.20691077 429 756 C428.58947388 754.89432426 428.58947388 754.89432426 428.1706543 753.76631165 C427.07076222 751.16721447 425.85533027 749.06379437 424.26953125 746.73901367 C423.72135742 745.93014206 423.17318359 745.12127045 422.60839844 744.28788757 C422.01575195 743.42331436 421.42310547 742.55874115 420.8125 741.66796875 C420.19536133 740.75856033 419.57822266 739.84915192 418.94238281 738.91218567 C416.96605879 736.00088802 414.98355787 733.09387285 413 730.1875 C398.25100927 708.54770751 398.25100927 708.54770751 391.76991272 698.01393127 C386.69733477 689.81578168 381.23868184 681.87401542 375.82254028 673.9006958 C372.60120092 669.15731805 369.38983337 664.40720789 366.1796875 659.65625 C365.55169754 658.72688629 364.92370758 657.79752258 364.27668762 656.83999634 C358.63203288 648.47543543 353.07527534 640.05748199 347.59594727 631.58374023 C344.4066561 626.65468643 341.17234223 621.7697516 337.83203125 616.94140625 C337.16550537 615.97058105 336.49897949 614.99975586 335.81225586 613.99951172 C334.56136442 612.18378802 333.29863378 610.37613794 332.02172852 608.57861328 C331.47572998 607.78310059 330.92973145 606.98758789 330.3671875 606.16796875 C329.88362793 605.47985107 329.40006836 604.7917334 328.90185547 604.08276367 C327.69129259 601.28706472 328.05406936 599.86514074 329 597 C330.20825195 595.03393555 330.20825195 595.03393555 331.73828125 593.13671875 C332.5880957 592.06647461 332.5880957 592.06647461 333.45507812 590.97460938 C334.37450195 589.84249023 334.37450195 589.84249023 335.3125 588.6875 C336.60149465 587.06738746 337.88923368 585.44627522 339.17578125 583.82421875 C339.82240723 583.01259277 340.4690332 582.2009668 341.13525391 581.36474609 C343.82199388 577.95760242 346.41493054 574.48452958 349 571 C353.82155381 564.52773703 358.75045248 558.14526227 363.71655273 551.78344727 C369.32001021 544.60211534 374.85451051 537.36943905 380.37792969 530.12646484 C383.14505168 526.4988862 385.91619812 522.87438585 388.6875 519.25 C389.23156494 518.53835693 389.77562988 517.82671387 390.33618164 517.09350586 C394.34933073 511.84610235 398.37590762 506.60921088 402.40625 501.375 C405.44607628 497.42322584 408.47275091 493.4614118 411.5 489.5 C416.12383027 483.44932652 420.76029644 477.40870592 425.40625 471.375 C428.44607628 467.42322584 431.47275091 463.4614118 434.5 459.5 C439.12383027 453.44932652 443.76029644 447.40870592 448.40625 441.375 C451.44607628 437.42322584 454.47275091 433.4614118 457.5 429.5 C462.12383027 423.44932652 466.76029644 417.40870592 471.40625 411.375 C474.44607628 407.42322584 477.47275091 403.4614118 480.5 399.5 C485.12383027 393.44932652 489.76029644 387.40870592 494.40625 381.375 C497.44607628 377.42322584 500.47275091 373.4614118 503.5 369.5 C508.12383027 363.44932652 512.76029644 357.40870592 517.40625 351.375 C520.44607628 347.42322584 523.47275091 343.4614118 526.5 339.5 C531.12383027 333.44932652 535.76029644 327.40870592 540.40625 321.375 C543.44607628 317.42322584 546.47275091 313.4614118 549.5 309.5 C554.12383027 303.44932652 558.76029644 297.40870592 563.40625 291.375 C566.44607642 287.42322566 569.47270358 283.46137583 572.5 279.5 C576.51581795 274.24614339 580.53352262 268.99377511 584.5625 263.75 C585.70912109 262.25726562 585.70912109 262.25726562 586.87890625 260.734375 C588.31275709 258.8859485 589.78022671 257.06319262 591.27734375 255.265625 C593.20175242 253.20901594 593.20175242 253.20901594 593 251 C480.47 251 367.94 251 252 251 Z " fill="#00ADEE" transform="translate(555,348)"/>
<path d="M0 0 C220.11 0 440.22 0 667 0 C667 222.13376835 667 222.13376835 644 252 C642.75233604 253.62151985 641.50491248 255.24322434 640.25756836 256.86499023 C639.41863284 257.95572042 638.57960276 259.04637788 637.74047852 260.13696289 C635.70570351 262.78157716 633.67218697 265.42713386 631.640625 268.07421875 C626.84624905 274.31787502 622.02588912 280.54038067 617.1875 286.75 C610.89729487 294.82493961 604.67187405 302.94787195 598.46240234 311.08496094 C592.41321617 319.00646617 586.31295819 326.88742169 580.1875 334.75 C573.90311198 342.81759914 567.68354114 350.93317211 561.47998047 359.06298828 C558.45661906 363.01999082 555.41727147 366.96467076 552.37890625 370.91015625 C550.80188021 372.95847742 549.22634141 375.00794455 547.65234375 377.05859375 C542.8543524 383.30768492 538.02989136 389.53524417 533.1875 395.75 C526.90305059 403.8175508 520.68354062 411.93317278 514.47998047 420.06298828 C511.45661906 424.01999082 508.41727147 427.96467076 505.37890625 431.91015625 C503.80188021 433.95847742 502.22634141 436.00794455 500.65234375 438.05859375 C495.8543524 444.30768492 491.02989136 450.53524417 486.1875 456.75 C479.89729487 464.82493961 473.67187405 472.94787195 467.46240234 481.08496094 C461.41321617 489.00646617 455.31295819 496.88742169 449.1875 504.75 C443.431884 512.13878671 437.7270065 519.56480471 432.046875 527.01171875 C430.08543817 529.58254003 428.11744757 532.14802205 426.140625 534.70703125 C425.69299805 535.28670654 425.24537109 535.86638184 424.78417969 536.46362305 C423.5966707 537.99993458 422.40777172 539.53517144 421.21875 541.0703125 C419.08944038 543.72160287 419.08944038 543.72160287 418.07217407 545.74154663 C416.37345998 548.71943926 415.01009767 550.61005194 411.74981689 551.86868286 C408.87568933 552.45165248 406.03198817 552.83191874 403.1171875 553.15625 C402.01744598 553.3049353 400.91770447 553.45362061 399.78463745 553.60681152 C397.41393212 553.92672531 395.04155852 554.23446606 392.66784668 554.53125 C387.81740619 555.15113523 382.98466964 555.87378128 378.14854431 556.5957489 C374.26572098 557.1736782 370.38101035 557.73761686 366.49536133 558.29614258 C365.821829 558.39302526 365.14829668 558.48990793 364.45435429 558.58972645 C363.06092689 558.79013158 361.66749257 558.99048856 360.27405167 559.19079971 C356.54796945 559.72689929 352.82222018 560.26530371 349.09643555 560.8034668 C342.6993638 561.72724486 336.30212371 562.64984888 329.90478516 563.57177734 C320.00245158 564.99897585 310.10077133 566.43067579 300.19921875 567.86328125 C296.82690565 568.35116495 293.45459058 568.83903503 290.08227539 569.3269043 C289.23974181 569.44879529 288.39720823 569.57068628 287.52914333 569.69627094 C277.94923055 571.08215795 268.36916602 572.4669947 258.7890625 573.8515625 C257.90717569 573.97901793 257.02528889 574.10647335 256.11667824 574.23779106 C243.01631417 576.13106916 229.91578481 578.0232014 216.8151741 579.91477203 C213.90073159 580.33560624 210.9862989 580.75650836 208.0718689 581.1774292 C199.42812977 582.42576291 190.7843429 583.673759 182.14024925 584.91963577 C164.80127439 587.41887584 147.46328155 589.92340335 130.13332176 592.48451042 C127.89523864 592.81501638 125.6570355 593.14469514 123.41877747 593.47401428 C122.70335879 593.57927649 121.98794012 593.68453871 121.25084209 593.79299068 C119.84152203 594.00031339 118.43219559 594.20759274 117.02286243 594.41482639 C112.43244609 595.09044369 107.84345173 595.77523129 103.25463867 596.46166992 C100.92892382 596.80421416 98.60316192 597.14643923 96.27734375 597.48828125 C95.25368713 597.64382477 94.23003052 597.79936829 93.175354 597.95962524 C87.38133239 598.80253995 81.85559298 599.14577771 76 599 C79.76903764 593.0138814 83.94374176 587.55937969 88.46484375 582.125 C91.32078346 578.64800852 94.00364226 575.04799586 96.6875 571.4375 C101.03667825 565.59156745 105.45305669 559.80536465 109.9375 554.0625 C116.13584693 546.12262358 122.2699461 538.1359905 128.37792969 530.12646484 C131.14505168 526.4988862 133.91619812 522.87438585 136.6875 519.25 C137.23156494 518.53835693 137.77562988 517.82671387 138.33618164 517.09350586 C142.34933073 511.84610235 146.37590762 506.60921088 150.40625 501.375 C153.44607628 497.42322584 156.47275091 493.4614118 159.5 489.5 C164.12383027 483.44932652 168.76029644 477.40870592 173.40625 471.375 C176.44607628 467.42322584 179.47275091 463.4614118 182.5 459.5 C187.12383027 453.44932652 191.76029644 447.40870592 196.40625 441.375 C199.44607628 437.42322584 202.47275091 433.4614118 205.5 429.5 C210.12383027 423.44932652 214.76029644 417.40870592 219.40625 411.375 C222.44607628 407.42322584 225.47275091 403.4614118 228.5 399.5 C233.12383027 393.44932652 237.76029644 387.40870592 242.40625 381.375 C245.44607628 377.42322584 248.47275091 373.4614118 251.5 369.5 C256.12383027 363.44932652 260.76029644 357.40870592 265.40625 351.375 C268.44607628 347.42322584 271.47275091 343.4614118 274.5 339.5 C279.12383027 333.44932652 283.76029644 327.40870592 288.40625 321.375 C291.44607628 317.42322584 294.47275091 313.4614118 297.5 309.5 C302.12383027 303.44932652 306.76029644 297.40870592 311.40625 291.375 C315.00388385 286.69807599 318.58433561 282.00799321 322.16601562 277.31884766 C324.7287337 273.96497018 327.29469903 270.6138132 329.875 267.2734375 C330.32037109 266.69658203 330.76574219 266.11972656 331.22460938 265.52539062 C332.40907793 263.99265567 333.59509966 262.46112133 334.78125 260.9296875 C337.25180588 257.66750984 339.62150332 254.32989535 342 251 C229.14 251 116.28 251 0 251 C0 168.17 0 85.34 0 0 Z " fill="#1B75BC" transform="translate(806,348)"/>
</svg>
